<?xml version="1.0" standalone="no"?>
<!DOCTYPE svg PUBLIC "-//W3C//DTD SVG 20010904//EN"
 "http://www.w3.org/TR/2001/REC-SVG-20010904/DTD/svg10.dtd">
<svg version="1.0" xmlns="http://www.w3.org/2000/svg"
 width="182.000000pt" height="182.000000pt" viewBox="0 0 182.000000 182.000000"
 preserveAspectRatio="xMidYMid meet">
<metadata>
Created by potrace 1.11, written by Peter Selinger 2001-2013
</metadata>
<g transform="translate(0.000000,182.000000) scale(0.100000,-0.100000)"
fill="#000000" stroke="none">
<path d="M872 1413 c-2 -328 -3 -343 -21 -353 -15 -7 -21 -23 -23 -58 -2 -33
-7 -47 -18 -48 -31 -2 -32 -5 -15 -30 14 -21 15 -37 9 -87 -4 -34 -7 -70 -5
-79 1 -10 -3 -18 -8 -18 -6 0 -11 -7 -11 -15 0 -10 -10 -15 -34 -15 -19 0 -38
-4 -41 -10 -3 -5 1 -10 9 -10 9 0 16 -5 16 -11 0 -5 -4 -8 -8 -5 -4 2 -14 1
-22 -5 -13 -7 -12 -9 2 -9 19 0 38 -28 31 -46 -2 -6 5 -14 15 -16 25 -7 40
-85 44 -223 1 -60 9 -132 16 -160 7 -27 14 -72 16 -100 l3 -50 56 -3 c54 -3
57 -2 57 20 0 13 9 69 20 126 11 56 20 128 20 158 0 41 3 53 13 48 10 -6 10
-4 0 7 -27 28 -4 168 29 176 10 3 18 13 17 22 -3 31 1 41 16 41 8 0 15 4 15 9
0 5 -22 8 -50 7 -27 -2 -50 1 -50 6 0 5 15 9 33 8 47 -3 57 -1 57 10 0 6 -18
10 -40 10 -22 0 -40 1 -40 3 0 2 -4 28 -10 58 -19 108 -20 133 -3 151 13 14
14 21 5 30 -7 7 -12 8 -12 4 0 -5 -7 -3 -15 4 -9 7 -15 29 -15 51 0 25 -6 41
-16 47 -15 8 -17 39 -20 233 -2 123 -8 278 -12 344 -7 101 -9 65 -10 -222z
m83 -732 c-9 -9 -195 -8 -195 2 0 4 45 7 101 6 55 0 97 -4 94 -8z"/>
</g>
</svg>
